{
 "cells": [
  {
   "cell_type": "code",
   "execution_count": 9,
   "metadata": {},
   "outputs": [
    {
     "name": "stderr",
     "output_type": "stream",
     "text": [
      "ffmpeg version 4.3.2 Copyright (c) 2000-2021 the FFmpeg developers\n",
      "  built with clang version 12.0.1\n",
      "  configuration: --prefix=/opt/anaconda3 --cc=x86_64-apple-darwin13.4.0-clang --disable-doc --disable-openssl --enable-avresample --enable-gnutls --enable-gpl --enable-hardcoded-tables --enable-libfreetype --enable-libopenh264 --enable-libx264 --enable-pic --enable-pthreads --enable-shared --disable-static --enable-version3 --enable-zlib --enable-libmp3lame --pkg-config=/Users/runner/miniforge3/conda-bld/ffmpeg_1645955481026/_build_env/bin/pkg-config\n",
      "  libavutil      56. 51.100 / 56. 51.100\n",
      "  libavcodec     58. 91.100 / 58. 91.100\n",
      "  libavformat    58. 45.100 / 58. 45.100\n",
      "  libavdevice    58. 10.100 / 58. 10.100\n",
      "  libavfilter     7. 85.100 /  7. 85.100\n",
      "  libavresample   4.  0.  0 /  4.  0.  0\n",
      "  libswscale      5.  7.100 /  5.  7.100\n",
      "  libswresample   3.  7.100 /  3.  7.100\n",
      "  libpostproc    55.  7.100 / 55.  7.100\n",
      "Input #0, mov,mp4,m4a,3gp,3g2,mj2, from 'input.mp4':\n",
      "  Metadata:\n",
      "    major_brand     : isom\n",
      "    minor_version   : 512\n",
      "    compatible_brands: isomiso2avc1mp41\n",
      "    encoder         : Lavf58.27.100\n",
      "  Duration: 00:03:10.45, start: 0.000000, bitrate: 2515 kb/s\n",
      "    Stream #0:0(und): Video: h264 (High) (avc1 / 0x31637661), yuv420p(tv, bt709), 1920x1080 [SAR 1:1 DAR 16:9], 2383 kb/s, 23.98 fps, 23.98 tbr, 24k tbn, 47.95 tbc (default)\n",
      "    Metadata:\n",
      "      handler_name    : ISO Media file produced by Google Inc.\n",
      "    Stream #0:1(eng): Audio: aac (LC) (mp4a / 0x6134706D), 44100 Hz, stereo, fltp, 127 kb/s (default)\n",
      "    Metadata:\n",
      "      handler_name    : ISO Media file produced by Google Inc.\n",
      "Output #0, mp4, to 'output.mp4':\n",
      "  Metadata:\n",
      "    major_brand     : isom\n",
      "    minor_version   : 512\n",
      "    compatible_brands: isomiso2avc1mp41\n",
      "    encoder         : Lavf58.45.100\n",
      "    Stream #0:0(und): Video: h264 (High) (avc1 / 0x31637661), yuv420p(tv, bt709), 1920x1080 [SAR 1:1 DAR 16:9], q=2-31, 2383 kb/s, 23.98 fps, 23.98 tbr, 24k tbn, 24k tbc (default)\n",
      "    Metadata:\n",
      "      handler_name    : ISO Media file produced by Google Inc.\n",
      "    Stream #0:1(eng): Audio: aac (LC) (mp4a / 0x6134706D), 44100 Hz, stereo, fltp, 127 kb/s (default)\n",
      "    Metadata:\n",
      "      handler_name    : ISO Media file produced by Google Inc.\n",
      "Stream mapping:\n",
      "  Stream #0:0 -> #0:0 (copy)\n",
      "  Stream #0:1 -> #0:1 (copy)\n",
      "Press [q] to stop, [?] for help\n",
      "frame=  274 fps=0.0 q=-1.0 Lsize=    2781kB time=00:00:09.99 bitrate=2278.3kbits/s speed= 945x    \n",
      "video:2594kB audio:178kB subtitle:0kB other streams:0kB global headers:0kB muxing overhead: 0.314000%\n",
      "ffmpeg version 4.3.2 Copyright (c) 2000-2021 the FFmpeg developers\n",
      "  built with clang version 12.0.1\n",
      "  configuration: --prefix=/opt/anaconda3 --cc=x86_64-apple-darwin13.4.0-clang --disable-doc --disable-openssl --enable-avresample --enable-gnutls --enable-gpl --enable-hardcoded-tables --enable-libfreetype --enable-libopenh264 --enable-libx264 --enable-pic --enable-pthreads --enable-shared --disable-static --enable-version3 --enable-zlib --enable-libmp3lame --pkg-config=/Users/runner/miniforge3/conda-bld/ffmpeg_1645955481026/_build_env/bin/pkg-config\n",
      "  libavutil      56. 51.100 / 56. 51.100\n",
      "  libavcodec     58. 91.100 / 58. 91.100\n",
      "  libavformat    58. 45.100 / 58. 45.100\n",
      "  libavdevice    58. 10.100 / 58. 10.100\n",
      "  libavfilter     7. 85.100 /  7. 85.100\n",
      "  libavresample   4.  0.  0 /  4.  0.  0\n",
      "  libswscale      5.  7.100 /  5.  7.100\n",
      "  libswresample   3.  7.100 /  3.  7.100\n",
      "  libpostproc    55.  7.100 / 55.  7.100\n"
     ]
    },
    {
     "name": "stdout",
     "output_type": "stream",
     "text": [
      "FFmpeg command executed successfully.\n"
     ]
    },
    {
     "name": "stderr",
     "output_type": "stream",
     "text": [
      "Input #0, mov,mp4,m4a,3gp,3g2,mj2, from 'input.mp4':\n",
      "  Metadata:\n",
      "    major_brand     : isom\n",
      "    minor_version   : 512\n",
      "    compatible_brands: isomiso2avc1mp41\n",
      "    encoder         : Lavf58.27.100\n",
      "  Duration: 00:03:10.45, start: 0.000000, bitrate: 2515 kb/s\n",
      "    Stream #0:0(und): Video: h264 (High) (avc1 / 0x31637661), yuv420p(tv, bt709), 1920x1080 [SAR 1:1 DAR 16:9], 2383 kb/s, 23.98 fps, 23.98 tbr, 24k tbn, 47.95 tbc (default)\n",
      "    Metadata:\n",
      "      handler_name    : ISO Media file produced by Google Inc.\n",
      "    Stream #0:1(eng): Audio: aac (LC) (mp4a / 0x6134706D), 44100 Hz, stereo, fltp, 127 kb/s (default)\n",
      "    Metadata:\n",
      "      handler_name    : ISO Media file produced by Google Inc.\n",
      "Output #0, mp4, to 'output2.mp4':\n",
      "  Metadata:\n",
      "    major_brand     : isom\n",
      "    minor_version   : 512\n",
      "    compatible_brands: isomiso2avc1mp41\n",
      "    encoder         : Lavf58.45.100\n",
      "    Stream #0:0(und): Video: h264 (High) (avc1 / 0x31637661), yuv420p(tv, bt709), 1920x1080 [SAR 1:1 DAR 16:9], q=2-31, 2383 kb/s, 23.98 fps, 23.98 tbr, 24k tbn, 24k tbc (default)\n",
      "    Metadata:\n",
      "      handler_name    : ISO Media file produced by Google Inc.\n",
      "    Stream #0:1(eng): Audio: aac (LC) (mp4a / 0x6134706D), 44100 Hz, stereo, fltp, 127 kb/s (default)\n",
      "    Metadata:\n",
      "      handler_name    : ISO Media file produced by Google Inc.\n",
      "Stream mapping:\n",
      "  Stream #0:0 -> #0:0 (copy)\n",
      "  Stream #0:1 -> #0:1 (copy)\n",
      "Press [q] to stop, [?] for help\n",
      "frame=  291 fps=0.0 q=-1.0 Lsize=    2742kB time=00:00:10.99 bitrate=2044.0kbits/s speed= 599x    \n",
      "video:2544kB audio:190kB subtitle:0kB other streams:0kB global headers:0kB muxing overhead: 0.335038%\n"
     ]
    }
   ],
   "source": [
    "import subprocess\n",
    "# ffmpeg -ss 30 -i input.wmv -c copy -t 10 output.wmv\n",
    "command = [\n",
    "    \"ffmpeg\",\n",
    "    \"-ss\", \"30\",          # Start time at 30 seconds\n",
    "    \"-i\", \"input.mp4\",    # Input file\n",
    "    \"-c\", \"copy\",         # Copy codec\n",
    "    \"-t\", \"10\",           # Duration of 10 seconds\n",
    "    \"output.mp4\"          # Output file\n",
    "]\n",
    "\n",
    "try:\n",
    "    subprocess.run(command, check=True)\n",
    "    command[2] = \"40\"\n",
    "    command[8] = \"11\"\n",
    "    command[9] = \"output2.mp4\"\n",
    "    subprocess.run(command, check=True)\n",
    "    print(\"FFmpeg command executed successfully.\")\n",
    "except subprocess.CalledProcessError as e:\n",
    "    print(f\"Error occurred: {e}\")\n"
   ]
  },
  {
   "cell_type": "code",
   "execution_count": 21,
   "metadata": {},
   "outputs": [
    {
     "name": "stderr",
     "output_type": "stream",
     "text": [
      "ffmpeg version 4.3.2 Copyright (c) 2000-2021 the FFmpeg developers\n",
      "  built with clang version 12.0.1\n",
      "  configuration: --prefix=/opt/anaconda3 --cc=x86_64-apple-darwin13.4.0-clang --disable-doc --disable-openssl --enable-avresample --enable-gnutls --enable-gpl --enable-hardcoded-tables --enable-libfreetype --enable-libopenh264 --enable-libx264 --enable-pic --enable-pthreads --enable-shared --disable-static --enable-version3 --enable-zlib --enable-libmp3lame --pkg-config=/Users/runner/miniforge3/conda-bld/ffmpeg_1645955481026/_build_env/bin/pkg-config\n",
      "  libavutil      56. 51.100 / 56. 51.100\n",
      "  libavcodec     58. 91.100 / 58. 91.100\n",
      "  libavformat    58. 45.100 / 58. 45.100\n",
      "  libavdevice    58. 10.100 / 58. 10.100\n",
      "  libavfilter     7. 85.100 /  7. 85.100\n",
      "  libavresample   4.  0.  0 /  4.  0.  0\n",
      "  libswscale      5.  7.100 /  5.  7.100\n",
      "  libswresample   3.  7.100 /  3.  7.100\n",
      "  libpostproc    55.  7.100 / 55.  7.100\n",
      "[mov,mp4,m4a,3gp,3g2,mj2 @ 0x7fd98d011400] Auto-inserting h264_mp4toannexb bitstream filter\n",
      "Input #0, concat, from 'file_list.txt':\n",
      "  Duration: N/A, start: -0.023220, bitrate: 1730 kb/s\n",
      "    Stream #0:0(und): Video: h264 (High) (avc1 / 0x31637661), yuv420p, 1920x1080 [SAR 1:1 DAR 16:9], 1602 kb/s, 23.98 fps, 23.98 tbr, 24k tbn, 47.95 tbc\n",
      "    Metadata:\n",
      "      handler_name    : ISO Media file produced by Google Inc.\n",
      "    Stream #0:1(eng): Audio: aac (LC) (mp4a / 0x6134706D), 44100 Hz, stereo, fltp, 128 kb/s\n",
      "    Metadata:\n",
      "      handler_name    : ISO Media file produced by Google Inc.\n",
      "Stream mapping:\n",
      "  Stream #0:0 -> #0:0 (h264 (native) -> h264 (libx264))\n",
      "  Stream #0:1 -> #0:1 (aac (native) -> aac (native))\n",
      "Press [q] to stop, [?] for help\n",
      "[libx264 @ 0x7fd98f832400] using SAR=1/1\n",
      "[libx264 @ 0x7fd98f832400] using cpu capabilities: MMX2 SSE2Fast SSSE3 SSE4.2 AVX FMA3 BMI2 AVX2\n",
      "[libx264 @ 0x7fd98f832400] profile High, level 4.0, 4:2:0, 8-bit\n",
      "[libx264 @ 0x7fd98f832400] 264 - core 161 r3030M 8bd6d28 - H.264/MPEG-4 AVC codec - Copyleft 2003-2020 - http://www.videolan.org/x264.html - options: cabac=1 ref=2 deblock=1:0:0 analyse=0x3:0x113 me=hex subme=6 psy=1 psy_rd=1.00:0.00 mixed_ref=1 me_range=16 chroma_me=1 trellis=1 8x8dct=1 cqm=0 deadzone=21,11 fast_pskip=1 chroma_qp_offset=-2 threads=12 lookahead_threads=2 sliced_threads=0 nr=0 decimate=1 interlaced=0 bluray_compat=0 constrained_intra=0 bframes=3 b_pyramid=2 b_adapt=1 b_bias=0 direct=1 weightb=1 open_gop=0 weightp=1 keyint=250 keyint_min=23 scenecut=40 intra_refresh=0 rc_lookahead=30 rc=crf mbtree=1 crf=23.0 qcomp=0.60 qpmin=0 qpmax=69 qpstep=4 ip_ratio=1.40 aq=1:1.00\n",
      "Output #0, mp4, to 'final.mp4':\n",
      "  Metadata:\n",
      "    encoder         : Lavf58.45.100\n",
      "    Stream #0:0(und): Video: h264 (libx264) (avc1 / 0x31637661), yuv420p, 1920x1080 [SAR 1:1 DAR 16:9], q=-1--1, 23.98 fps, 24k tbn, 23.98 tbc\n",
      "    Metadata:\n",
      "      handler_name    : ISO Media file produced by Google Inc.\n",
      "      encoder         : Lavc58.91.100 libx264\n",
      "    Side data:\n",
      "      cpb: bitrate max/min/avg: 0/0/0 buffer size: 0 vbv_delay: N/A\n",
      "    Stream #0:1(eng): Audio: aac (LC) (mp4a / 0x6134706D), 44100 Hz, stereo, fltp, 128 kb/s\n",
      "    Metadata:\n",
      "      handler_name    : ISO Media file produced by Google Inc.\n",
      "      encoder         : Lavc58.91.100 aac\n",
      "frame=   23 fps=0.0 q=0.0 size=       0kB time=00:00:01.23 bitrate=   0.3kbits/s dup=1 drop=0 speed=2.45x    \r"
     ]
    },
    {
     "name": "stderr",
     "output_type": "stream",
     "text": [
      "[mov,mp4,m4a,3gp,3g2,mj2 @ 0x7fd98f84d200] Auto-inserting h264_mp4toannexb bitstream filterp=0 speed=0.788x    \n",
      "frame=  481 fps= 21 q=-1.0 Lsize=    4715kB time=00:00:20.05 bitrate=1926.0kbits/s dup=1 drop=0 speed=0.864x    \n",
      "video:4385kB audio:314kB subtitle:0kB other streams:0kB global headers:0kB muxing overhead: 0.344260%\n",
      "[libx264 @ 0x7fd98f832400] frame I:10    Avg QP:14.15  size: 51492\n",
      "[libx264 @ 0x7fd98f832400] frame P:152   Avg QP:17.92  size: 14241\n",
      "[libx264 @ 0x7fd98f832400] frame B:319   Avg QP:19.96  size:  5673\n",
      "[libx264 @ 0x7fd98f832400] consecutive B-frames:  8.5%  6.2%  8.7% 76.5%\n",
      "[libx264 @ 0x7fd98f832400] mb I  I16..4: 38.9% 55.3%  5.8%\n",
      "[libx264 @ 0x7fd98f832400] mb P  I16..4:  7.5% 14.4%  0.3%  P16..4: 22.3%  4.1%  1.3%  0.0%  0.0%    skip:50.1%\n",
      "[libx264 @ 0x7fd98f832400] mb B  I16..4:  1.9%  2.4%  0.0%  B16..8: 17.0%  1.7%  0.1%  direct: 7.8%  skip:69.0%  L0:47.8% L1:48.5% BI: 3.7%\n",
      "[libx264 @ 0x7fd98f832400] 8x8 transform intra:61.1% inter:84.2%\n",
      "[libx264 @ 0x7fd98f832400] coded y,uvDC,uvAC intra: 22.9% 53.2% 8.1% inter: 3.6% 11.9% 0.1%\n",
      "[libx264 @ 0x7fd98f832400] i16 v,h,dc,p: 42% 31% 12% 15%\n",
      "[libx264 @ 0x7fd98f832400] i8 v,h,dc,ddl,ddr,vr,hd,vl,hu: 35% 24% 23%  3%  3%  3%  3%  3%  3%\n",
      "[libx264 @ 0x7fd98f832400] i4 v,h,dc,ddl,ddr,vr,hd,vl,hu: 29% 27% 14%  4%  7%  6%  5%  4%  3%\n",
      "[libx264 @ 0x7fd98f832400] i8c dc,h,v,p: 46% 25% 20%  9%\n",
      "[libx264 @ 0x7fd98f832400] Weighted P-Frames: Y:5.9% UV:5.3%\n",
      "[libx264 @ 0x7fd98f832400] ref P L0: 74.2% 25.8%\n",
      "[libx264 @ 0x7fd98f832400] ref B L0: 86.8% 13.2%\n",
      "[libx264 @ 0x7fd98f832400] ref B L1: 96.6%  3.4%\n",
      "[libx264 @ 0x7fd98f832400] kb/s:1790.19\n"
     ]
    },
    {
     "name": "stdout",
     "output_type": "stream",
     "text": [
      "FFmpeg command executed successfully.\n"
     ]
    },
    {
     "name": "stderr",
     "output_type": "stream",
     "text": [
      "[aac @ 0x7fd98f833c00] Qavg: 158.370\n"
     ]
    }
   ],
   "source": [
    "command = [\n",
    "    \"ffmpeg\",\n",
    "    \"-f\", \"concat\",       # Use concat demuxer\n",
    "    \"-safe\", \"0\",         # Allow potentially unsafe file paths\n",
    "    \"-i\", \"file_list.txt\",# Input file list\n",
    "    \"-c:v\", \"libx264\",    # Re-encode during concatenation\n",
    "    \"-crf\", \"23\",\n",
    "    \"-preset\", \"fast\",\n",
    "    \"-c:a\", \"aac\",\n",
    "    \"-b:a\", \"128k\",\n",
    "    \"final.mp4\"\n",
    "]\n",
    "\n",
    "# Run the command\n",
    "try:\n",
    "    subprocess.run(command, check=True)\n",
    "    print(\"FFmpeg command executed successfully.\")\n",
    "except subprocess.CalledProcessError as e:\n",
    "    print(f\"Error occurred: {e}\")"
   ]
  },
  {
   "cell_type": "code",
   "execution_count": 8,
   "metadata": {},
   "outputs": [
    {
     "name": "stdout",
     "output_type": "stream",
     "text": [
      "[{'text': \" Worst thing you'd want to do is put on a flat spare, then you'll remove the tire.\", 'start_time': '00:00:23', 'end_time': '00:00:27', 'score': 0.48296600580215454}, {'text': ' what holds your tire on.', 'start_time': '00:03:05', 'end_time': '00:03:07', 'score': 0.47747358679771423}, {'text': ' Once the tire is centered, lug nuts are hand tight, take the lug wrench.', 'start_time': '00:04:00', 'end_time': '00:04:05', 'score': 0.4715319573879242}, {'text': ' Grab the spare tire, put it in position.', 'start_time': '00:03:26', 'end_time': '00:03:30', 'score': 0.4660034477710724}, {'text': ' Lift up this cover to access the spare tire.', 'start_time': '00:00:12', 'end_time': '00:00:17', 'score': 0.4637228846549988}, {'text': \" You're going to center the spare tire on the wheel studs.\", 'start_time': '00:03:30', 'end_time': '00:03:33', 'score': 0.4243428111076355}, {'text': ' flat tire.', 'start_time': '00:00:07', 'end_time': '00:00:08', 'score': 0.4229423999786377}, {'text': \" We'll remove the flat tire, set it over here out of the way.\", 'start_time': '00:03:16', 'end_time': '00:03:21', 'score': 0.42081761360168457}, {'text': ' Carefully jack the car up.', 'start_time': '00:02:28', 'end_time': '00:02:29', 'score': 0.38971418142318726}, {'text': \" Make sure you get the big tire fixed, and we'll get you back on the road as soon as\", 'start_time': '00:05:22', 'end_time': '00:05:25', 'score': 0.3862466812133789}, {'text': \" Now that the tire is on the ground, we'll go ahead and give them that final tight.\", 'start_time': '00:04:55', 'end_time': '00:04:59', 'score': 0.3802434206008911}, {'text': ' to lower the vehicle.', 'start_time': '00:04:30', 'end_time': '00:04:32', 'score': 0.3588915467262268}, {'text': \" We've also chucked the wheel on the opposite side of the flat tire, so we're ready to start\", 'start_time': '00:00:34', 'end_time': '00:00:39', 'score': 0.35622429847717285}, {'text': \" Okay, well we have our spare tire on, it's aired up, we're ready to go.\", 'start_time': '00:05:10', 'end_time': '00:05:17', 'score': 0.34949806332588196}, {'text': ' A couple things to remember though is you want to put everything back in the trunk,', 'start_time': '00:05:17', 'end_time': '00:05:19', 'score': 0.33432167768478394}, {'text': ' Remember, we already pre-loosened them when the car was on the ground, making it easy.', 'start_time': '00:02:47', 'end_time': '00:02:50', 'score': 0.3209787607192993}, {'text': \" Your owner's manual is a good place to find where to properly jack the vehicle.\", 'start_time': '00:01:59', 'end_time': '00:02:05', 'score': 0.3104967772960663}, {'text': \" Using it as leverage, it'll help make the car go up easier.\", 'start_time': '00:02:19', 'end_time': '00:02:21', 'score': 0.3084530830383301}, {'text': ' Loosen the lug nuts, position yourself firmly, pressing counterclockwise, loosen the lug', 'start_time': '00:01:16', 'end_time': '00:01:23', 'score': 0.29807084798812866}, {'text': ' Well, we have our spare tire in our jack.', 'start_time': '00:00:29', 'end_time': '00:00:32', 'score': 0.29699158668518066}, {'text': ' Then install your lug nuts.', 'start_time': '00:03:43', 'end_time': '00:03:46', 'score': 0.29535481333732605}, {'text': \" Again, turning it clockwise, tighten the lugs until they're firm.\", 'start_time': '00:04:05', 'end_time': '00:04:11', 'score': 0.27800577878952026}, {'text': ' Trying to do that while the car was jacked up would be very difficult.', 'start_time': '00:02:53', 'end_time': '00:03:00', 'score': 0.2680826485157013}, {'text': \" The first thing we'll do is jack the vehicle up.\", 'start_time': '00:00:40', 'end_time': '00:00:43', 'score': 0.2675926089286804}, {'text': ' The screw moves in and out, allowing the mechanism to move up and down and lift your car.', 'start_time': '00:01:39', 'end_time': '00:01:44', 'score': 0.2637650966644287}, {'text': ' A little star pattern, making sure we have equal torque on the wheel studs.', 'start_time': '00:05:05', 'end_time': '00:05:10', 'score': 0.26305294036865234}, {'text': \" you don't want to exceed highway speed on this temporary spare.\", 'start_time': '00:05:19', 'end_time': '00:05:22', 'score': 0.25702324509620667}, {'text': ' This particular model has a lug wrench built right in.', 'start_time': '00:00:46', 'end_time': '00:00:53', 'score': 0.25235986709594727}, {'text': ' You might want to put it to the rear of the car.', 'start_time': '00:03:24', 'end_time': '00:03:26', 'score': 0.23778049647808075}, {'text': ' As you loosen it, the jack will collapse, allowing the car to come down.', 'start_time': '00:01:47', 'end_time': '00:01:52', 'score': 0.22987942397594452}, {'text': ' Not too tight, because remember, your car is up on a jack.', 'start_time': '00:04:11', 'end_time': '00:04:14', 'score': 0.22288170456886292}, {'text': \" Okay now that the car is jacked up, now we'll take the lug nuts loose.\", 'start_time': '00:02:44', 'end_time': '00:02:47', 'score': 0.2192254364490509}, {'text': ' We use the jack handle to raise the vehicle.', 'start_time': '00:02:13', 'end_time': '00:02:15', 'score': 0.21864038705825806}, {'text': \" it's going to be very difficult to get those lug nuts off.\", 'start_time': '00:00:56', 'end_time': '00:00:59', 'score': 0.21121159195899963}, {'text': ' Set the hubcap out of the way, now you have access to the lug nuts.', 'start_time': '00:01:10', 'end_time': '00:01:16', 'score': 0.2100929617881775}, {'text': ' gain leverage.', 'start_time': '00:01:34', 'end_time': '00:01:35', 'score': 0.20152854919433594}, {'text': ' If it seems to be going down easy, you can just do it like this by doing it straight', 'start_time': '00:04:36', 'end_time': '00:04:40', 'score': 0.19641384482383728}, {'text': ' Never stick your hands or your legs under the vehicle, as the car can fall and cause', 'start_time': '00:02:29', 'end_time': '00:02:33', 'score': 0.19474613666534424}, {'text': ' Remember to turn it clockwise to go up, and counterclockwise to go down.', 'start_time': '00:02:22', 'end_time': '00:02:28', 'score': 0.19253671169281006}, {'text': \" You don't want them rolling away in the grass, because they'll be hard to find, and that's\", 'start_time': '00:03:02', 'end_time': '00:03:05', 'score': 0.19090750813484192}, {'text': ' Remember to keep your lug nuts in close hand.', 'start_time': '00:03:00', 'end_time': '00:03:02', 'score': 0.17665910720825195}, {'text': \" Again, we're turning them counterclockwise to get them loose, or to the left.\", 'start_time': '00:03:07', 'end_time': '00:03:16', 'score': 0.16773532330989838}, {'text': \" But if it's too tough, you can angle it and get the leverage that you'll need to lower\", 'start_time': '00:04:42', 'end_time': '00:04:45', 'score': 0.15763431787490845}, {'text': \" So as you turn it to the right, it'll go up.\", 'start_time': '00:01:44', 'end_time': '00:01:47', 'score': 0.15565699338912964}, {'text': \" Insert the jack handle back into the jack, turning it counterclockwise again, we're going\", 'start_time': '00:04:26', 'end_time': '00:04:30', 'score': 0.15553352236747742}, {'text': \" Now if there was heavy traffic area, you wouldn't want to leave it in the street.\", 'start_time': '00:03:21', 'end_time': '00:03:24', 'score': 0.14932620525360107}, {'text': ' Insert the end of the jack handle into the jack.', 'start_time': '00:02:15', 'end_time': '00:02:19', 'score': 0.14751823246479034}, {'text': \" That's where the lug nuts go.\", 'start_time': '00:03:33', 'end_time': '00:03:34', 'score': 0.1467399001121521}, {'text': ' Again, this will take some time, but going down is a lot easier than going up.', 'start_time': '00:04:32', 'end_time': '00:04:36', 'score': 0.1435965895652771}, {'text': \" Doesn't take much, because they're made out of plastic.\", 'start_time': '00:01:04', 'end_time': '00:01:10', 'score': 0.1378917247056961}, {'text': \" Before we jack, though, we'd want to loosen the lug nuts, because once it's jacked up,\", 'start_time': '00:00:53', 'end_time': '00:00:56', 'score': 0.13537409901618958}, {'text': ' Again, clockwise is tight, counterclockwise is loose.', 'start_time': '00:03:46', 'end_time': '00:03:51', 'score': 0.12913009524345398}, {'text': ' Not too loose, just enough to crack them.', 'start_time': '00:01:24', 'end_time': '00:01:26', 'score': 0.12902069091796875}, {'text': \" So we'll tighten them up by hand as far as they'll go.\", 'start_time': '00:03:51', 'end_time': '00:04:00', 'score': 0.12768855690956116}, {'text': ' You see it lines up pretty easy.', 'start_time': '00:03:40', 'end_time': '00:03:43', 'score': 0.12333723902702332}, {'text': ' changing it.', 'start_time': '00:00:39', 'end_time': '00:00:40', 'score': 0.12297920137643814}, {'text': \" Make sure it's full of air.\", 'start_time': '00:00:22', 'end_time': '00:00:23', 'score': 0.12088760733604431}, {'text': ' the jack or to raise the jack.', 'start_time': '00:04:45', 'end_time': '00:04:50', 'score': 0.11448033154010773}, {'text': ' damage.', 'start_time': '00:02:33', 'end_time': '00:02:37', 'score': 0.10867705941200256}, {'text': \" Turn the jack low enough, you can do it by hand now that it doesn't have contact with\", 'start_time': '00:04:50', 'end_time': '00:04:53', 'score': 0.10064738243818283}, {'text': \" This particular model has a hubcap, which we'll just loosen those up.\", 'start_time': '00:00:59', 'end_time': '00:01:04', 'score': 0.09865278750658035}, {'text': ' So go ahead and do that, lining it up.', 'start_time': '00:03:34', 'end_time': '00:03:40', 'score': 0.09670259058475494}, {'text': ' You want to be sure to get the jack on a good part of the frame.', 'start_time': '00:01:56', 'end_time': '00:01:59', 'score': 0.09615873545408249}, {'text': ' You can raise it up by hand, until it contacts the frame and is in good position.', 'start_time': '00:02:05', 'end_time': '00:02:13', 'score': 0.09581965208053589}, {'text': ' the frame, and we can remove it.', 'start_time': '00:04:53', 'end_time': '00:04:55', 'score': 0.09143038839101791}, {'text': \" We're going to start down here, then move to the top one, then back down, over, and\", 'start_time': '00:04:59', 'end_time': '00:05:04', 'score': 0.08613879233598709}, {'text': \" If it's a little stubborn, position yourself over, using your knee or your foot, you can\", 'start_time': '00:01:26', 'end_time': '00:01:34', 'score': 0.08288025110960007}, {'text': ' instead of having it angled.', 'start_time': '00:04:40', 'end_time': '00:04:42', 'score': 0.08094638586044312}, {'text': ' nuts.', 'start_time': '00:01:23', 'end_time': '00:01:24', 'score': 0.07801387459039688}, {'text': \" You'll have to loosen the jack a little bit in order to get the handle off.\", 'start_time': '00:00:43', 'end_time': '00:00:46', 'score': 0.07417744398117065}, {'text': \" We'll unloosen it with the hole down, then give it a couple good raps.\", 'start_time': '00:00:17', 'end_time': '00:00:22', 'score': 0.067192941904068}, {'text': \" I'm Alan Stanley for Howdini.com, and in this segment, we'll be talking about changing a\", 'start_time': '00:00:00', 'end_time': '00:00:07', 'score': 0.06342731416225433}, {'text': ' Jacking can take a while, so be patient and cautious as you jack.', 'start_time': '00:02:37', 'end_time': '00:02:44', 'score': 0.04863370954990387}, {'text': ' This is a common scissors jack.', 'start_time': '00:01:36', 'end_time': '00:01:39', 'score': 0.03413698449730873}, {'text': \" You'll notice they'll come right off now.\", 'start_time': '00:02:51', 'end_time': '00:02:53', 'score': 0.03397213667631149}, {'text': ' Careful, this can be quite heavy.', 'start_time': '00:00:27', 'end_time': '00:00:29', 'score': 0.030652910470962524}, {'text': \" We've set our reflective warning signal out.\", 'start_time': '00:00:32', 'end_time': '00:00:34', 'score': 0.029059333726763725}, {'text': \" Certainly, it's inconvenient, but we're going to walk you through it step-by-step.\", 'start_time': '00:00:08', 'end_time': '00:00:12', 'score': 0.015495060943067074}, {'text': \" Now we'll position the jack.\", 'start_time': '00:01:52', 'end_time': '00:01:56', 'score': 0.008916441351175308}, {'text': \" We wouldn't want it falling off with too much leverage or force.\", 'start_time': '00:04:14', 'end_time': '00:04:26', 'score': -0.0005750246345996857}, {'text': \" Now we're ready to jack it up.\", 'start_time': '00:01:35', 'end_time': '00:01:36', 'score': -0.005866421386599541}, {'text': ' back again.', 'start_time': '00:05:04', 'end_time': '00:05:05', 'score': -0.02556241676211357}, {'text': \" I'm Alan Stanley for Howdini.com.\", 'start_time': '00:05:26', 'end_time': '00:05:28', 'score': -0.02843432128429413}, {'text': ' possible.', 'start_time': '00:05:25', 'end_time': '00:05:26', 'score': -0.03638502210378647}]\n"
     ]
    },
    {
     "data": {
      "text/plain": [
       "[(23, 4),\n",
       " (185, 2),\n",
       " (240, 5),\n",
       " (206, 4),\n",
       " (12, 5),\n",
       " (210, 3),\n",
       " (7, 1),\n",
       " (196, 5),\n",
       " (148, 1),\n",
       " (322, 3),\n",
       " (295, 4),\n",
       " (270, 2),\n",
       " (34, 5),\n",
       " (310, 7),\n",
       " (317, 2),\n",
       " (167, 3),\n",
       " (119, 6),\n",
       " (139, 2),\n",
       " (76, 7),\n",
       " (29, 3),\n",
       " (223, 3),\n",
       " (245, 6),\n",
       " (173, 7),\n",
       " (40, 3),\n",
       " (99, 5),\n",
       " (305, 5),\n",
       " (319, 3),\n",
       " (46, 7),\n",
       " (204, 2),\n",
       " (107, 5),\n",
       " (251, 3),\n",
       " (164, 3),\n",
       " (133, 2),\n",
       " (56, 3),\n",
       " (70, 6),\n",
       " (94, 1),\n",
       " (276, 4),\n",
       " (149, 4),\n",
       " (142, 6),\n",
       " (182, 3),\n",
       " (180, 2),\n",
       " (187, 9),\n",
       " (282, 3),\n",
       " (104, 3),\n",
       " (266, 4),\n",
       " (201, 3),\n",
       " (135, 4),\n",
       " (213, 1),\n",
       " (272, 4),\n",
       " (64, 6),\n",
       " (53, 3),\n",
       " (226, 5),\n",
       " (84, 2),\n",
       " (231, 9),\n",
       " (220, 3),\n",
       " (39, 1),\n",
       " (22, 1),\n",
       " (285, 5),\n",
       " (153, 4),\n",
       " (290, 3),\n",
       " (59, 5),\n",
       " (214, 6),\n",
       " (116, 3),\n",
       " (125, 8),\n",
       " (293, 2),\n",
       " (299, 5),\n",
       " (86, 8),\n",
       " (280, 2),\n",
       " (83, 1),\n",
       " (43, 3),\n",
       " (17, 5),\n",
       " (0, 7),\n",
       " (157, 7),\n",
       " (96, 3),\n",
       " (171, 2),\n",
       " (27, 2),\n",
       " (32, 2),\n",
       " (8, 4),\n",
       " (112, 4),\n",
       " (254, 12),\n",
       " (95, 1),\n",
       " (304, 1),\n",
       " (326, 2),\n",
       " (325, 1)]"
      ]
     },
     "execution_count": 8,
     "metadata": {},
     "output_type": "execute_result"
    }
   ],
   "source": [
    "import json\n",
    "def timestamp_to_seconds(file_path):\n",
    "\n",
    "    # Open the file and load its contents\n",
    "    with open(file_path, 'r') as file:\n",
    "        data = json.load(file)\n",
    "        \n",
    "    print(data)\n",
    "        \n",
    "    points = []\n",
    "        \n",
    "    for segment in data:\n",
    "        # Split the timestamp into hours, minutes, and seconds\n",
    "        hours, minutes, seconds = segment['start_time'].split(':')\n",
    "        end_hours, end_minutes, end_seconds = segment['end_time'].split(':')\n",
    "        # Calculate the total number of seconds\n",
    "        total_start_seconds = int(hours) * 3600 + int(minutes) * 60 + int(seconds)\n",
    "        total_end_seconds = int(end_hours) * 3600 + int(end_minutes) * 60 + int(end_seconds)\n",
    "        # start, duration\n",
    "        points.append((total_start_seconds, total_end_seconds - total_start_seconds))\n",
    "        \n",
    "    return points\n",
    "    \n",
    "timestamp_to_seconds('../transcript/relevant_segments.json')"
   ]
  },
  {
   "cell_type": "code",
   "execution_count": null,
   "metadata": {},
   "outputs": [
    {
     "name": "stderr",
     "output_type": "stream",
     "text": [
      "ffmpeg version 4.3.2 Copyright (c) 2000-2021 the FFmpeg developers\n",
      "  built with clang version 12.0.1\n",
      "  configuration: --prefix=/opt/anaconda3 --cc=x86_64-apple-darwin13.4.0-clang --disable-doc --disable-openssl --enable-avresample --enable-gnutls --enable-gpl --enable-hardcoded-tables --enable-libfreetype --enable-libopenh264 --enable-libx264 --enable-pic --enable-pthreads --enable-shared --disable-static --enable-version3 --enable-zlib --enable-libmp3lame --pkg-config=/Users/runner/miniforge3/conda-bld/ffmpeg_1645955481026/_build_env/bin/pkg-config\n",
      "  libavutil      56. 51.100 / 56. 51.100\n",
      "  libavcodec     58. 91.100 / 58. 91.100\n",
      "  libavformat    58. 45.100 / 58. 45.100\n",
      "  libavdevice    58. 10.100 / 58. 10.100\n",
      "  libavfilter     7. 85.100 /  7. 85.100\n",
      "  libavresample   4.  0.  0 /  4.  0.  0\n",
      "  libswscale      5.  7.100 /  5.  7.100\n",
      "  libswresample   3.  7.100 /  3.  7.100\n",
      "  libpostproc    55.  7.100 / 55.  7.100\n",
      "Input #0, mov,mp4,m4a,3gp,3g2,mj2, from 'input.mp4':\n",
      "  Metadata:\n",
      "    major_brand     : isom\n",
      "    minor_version   : 512\n",
      "    compatible_brands: isomiso2avc1mp41\n",
      "    encoder         : Lavf58.27.100\n",
      "  Duration: 00:03:10.45, start: 0.000000, bitrate: 2515 kb/s\n",
      "    Stream #0:0(und): Video: h264 (High) (avc1 / 0x31637661), yuv420p(tv, bt709), 1920x1080 [SAR 1:1 DAR 16:9], 2383 kb/s, 23.98 fps, 23.98 tbr, 24k tbn, 47.95 tbc (default)\n",
      "    Metadata:\n",
      "      handler_name    : ISO Media file produced by Google Inc.\n",
      "    Stream #0:1(eng): Audio: aac (LC) (mp4a / 0x6134706D), 44100 Hz, stereo, fltp, 127 kb/s (default)\n",
      "    Metadata:\n",
      "      handler_name    : ISO Media file produced by Google Inc.\n",
      "Stream mapping:\n",
      "  Stream #0:0 -> #0:0 (h264 (native) -> h264 (libx264))\n",
      "  Stream #0:1 -> #0:1 (aac (native) -> aac (native))\n",
      "Press [q] to stop, [?] for help\n",
      "[libx264 @ 0x7fca3580c000] using SAR=1/1\n",
      "[libx264 @ 0x7fca3580c000] using cpu capabilities: MMX2 SSE2Fast SSSE3 SSE4.2 AVX FMA3 BMI2 AVX2\n",
      "[libx264 @ 0x7fca3580c000] profile High, level 4.0, 4:2:0, 8-bit\n",
      "[libx264 @ 0x7fca3580c000] 264 - core 161 r3030M 8bd6d28 - H.264/MPEG-4 AVC codec - Copyleft 2003-2020 - http://www.videolan.org/x264.html - options: cabac=1 ref=2 deblock=1:0:0 analyse=0x3:0x113 me=hex subme=6 psy=1 psy_rd=1.00:0.00 mixed_ref=1 me_range=16 chroma_me=1 trellis=1 8x8dct=1 cqm=0 deadzone=21,11 fast_pskip=1 chroma_qp_offset=-2 threads=12 lookahead_threads=2 sliced_threads=0 nr=0 decimate=1 interlaced=0 bluray_compat=0 constrained_intra=0 bframes=3 b_pyramid=2 b_adapt=1 b_bias=0 direct=1 weightb=1 open_gop=0 weightp=1 keyint=60 keyint_min=30 scenecut=0 intra_refresh=0 rc_lookahead=30 rc=crf mbtree=1 crf=23.0 qcomp=0.60 qpmin=0 qpmax=69 qpstep=4 ip_ratio=1.40 aq=1:1.00\n",
      "Output #0, mp4, to 'output.mp4':\n",
      "  Metadata:\n",
      "    major_brand     : isom\n",
      "    minor_version   : 512\n",
      "    compatible_brands: isomiso2avc1mp41\n",
      "    encoder         : Lavf58.45.100\n",
      "    Stream #0:0(und): Video: h264 (libx264) (avc1 / 0x31637661), yuv420p, 1920x1080 [SAR 1:1 DAR 16:9], q=-1--1, 23.98 fps, 24k tbn, 23.98 tbc (default)\n",
      "    Metadata:\n",
      "      handler_name    : ISO Media file produced by Google Inc.\n",
      "      encoder         : Lavc58.91.100 libx264\n",
      "    Side data:\n",
      "      cpb: bitrate max/min/avg: 0/0/0 buffer size: 0 vbv_delay: N/A\n",
      "    Stream #0:1(eng): Audio: aac (LC) (mp4a / 0x6134706D), 44100 Hz, stereo, fltp, 128 kb/s (default)\n",
      "    Metadata:\n",
      "      handler_name    : ISO Media file produced by Google Inc.\n",
      "      encoder         : Lavc58.91.100 aac\n",
      "frame=  240 fps= 26 q=-1.0 Lsize=    2123kB time=00:00:10.00 bitrate=1738.2kbits/s dup=1 drop=0 speed=1.07x    \n",
      "video:1958kB audio:157kB subtitle:0kB other streams:0kB global headers:0kB muxing overhead: 0.414925%\n",
      "[libx264 @ 0x7fca3580c000] frame I:4     Avg QP:14.94  size: 36820\n",
      "[libx264 @ 0x7fca3580c000] frame P:75    Avg QP:17.58  size: 14609\n",
      "[libx264 @ 0x7fca3580c000] frame B:161   Avg QP:20.09  size:  4726\n",
      "[libx264 @ 0x7fca3580c000] consecutive B-frames:  9.6%  0.8%  6.2% 83.3%\n",
      "[libx264 @ 0x7fca3580c000] mb I  I16..4: 42.5% 53.6%  3.9%\n",
      "[libx264 @ 0x7fca3580c000] mb P  I16..4:  8.3% 15.7%  0.3%  P16..4: 18.4%  3.6%  1.4%  0.0%  0.0%    skip:52.2%\n",
      "[libx264 @ 0x7fca3580c000] mb B  I16..4:  1.4%  1.4%  0.0%  B16..8: 15.2%  1.3%  0.0%  direct: 7.3%  skip:73.4%  L0:44.5% L1:52.3% BI: 3.3%\n",
      "[libx264 @ 0x7fca3580c000] 8x8 transform intra:60.8% inter:80.6%\n",
      "[libx264 @ 0x7fca3580c000] coded y,uvDC,uvAC intra: 20.7% 55.6% 10.1% inter: 3.5% 10.3% 0.1%\n",
      "[libx264 @ 0x7fca3580c000] i16 v,h,dc,p: 40% 32% 13% 15%\n",
      "[libx264 @ 0x7fca3580c000] i8 v,h,dc,ddl,ddr,vr,hd,vl,hu: 34% 25% 25%  3%  3%  3%  3%  2%  3%\n",
      "[libx264 @ 0x7fca3580c000] i4 v,h,dc,ddl,ddr,vr,hd,vl,hu: 25% 28% 15%  5%  7%  5%  7%  4%  4%\n",
      "[libx264 @ 0x7fca3580c000] i8c dc,h,v,p: 44% 26% 18% 12%\n",
      "[libx264 @ 0x7fca3580c000] Weighted P-Frames: Y:9.3% UV:8.0%\n",
      "[libx264 @ 0x7fca3580c000] ref P L0: 76.2% 23.8%\n",
      "[libx264 @ 0x7fca3580c000] ref B L0: 87.4% 12.6%\n",
      "[libx264 @ 0x7fca3580c000] ref B L1: 95.1%  4.9%\n",
      "[libx264 @ 0x7fca3580c000] kb/s:1601.49\n",
      "[aac @ 0x7fca3580d800] Qavg: 160.357\n",
      "ffmpeg version 4.3.2 Copyright (c) 2000-2021 the FFmpeg developers\n",
      "  built with clang version 12.0.1\n",
      "  configuration: --prefix=/opt/anaconda3 --cc=x86_64-apple-darwin13.4.0-clang --disable-doc --disable-openssl --enable-avresample --enable-gnutls --enable-gpl --enable-hardcoded-tables --enable-libfreetype --enable-libopenh264 --enable-libx264 --enable-pic --enable-pthreads --enable-shared --disable-static --enable-version3 --enable-zlib --enable-libmp3lame --pkg-config=/Users/runner/miniforge3/conda-bld/ffmpeg_1645955481026/_build_env/bin/pkg-config\n",
      "  libavutil      56. 51.100 / 56. 51.100\n",
      "  libavcodec     58. 91.100 / 58. 91.100\n",
      "  libavformat    58. 45.100 / 58. 45.100\n",
      "  libavdevice    58. 10.100 / 58. 10.100\n",
      "  libavfilter     7. 85.100 /  7. 85.100\n",
      "  libavresample   4.  0.  0 /  4.  0.  0\n",
      "  libswscale      5.  7.100 /  5.  7.100\n",
      "  libswresample   3.  7.100 /  3.  7.100\n",
      "  libpostproc    55.  7.100 / 55.  7.100\n",
      "Input #0, mov,mp4,m4a,3gp,3g2,mj2, from 'input.mp4':\n",
      "  Metadata:\n",
      "    major_brand     : isom\n",
      "    minor_version   : 512\n",
      "    compatible_brands: isomiso2avc1mp41\n",
      "    encoder         : Lavf58.27.100\n",
      "  Duration: 00:03:10.45, start: 0.000000, bitrate: 2515 kb/s\n",
      "    Stream #0:0(und): Video: h264 (High) (avc1 / 0x31637661), yuv420p(tv, bt709), 1920x1080 [SAR 1:1 DAR 16:9], 2383 kb/s, 23.98 fps, 23.98 tbr, 24k tbn, 47.95 tbc (default)\n",
      "    Metadata:\n",
      "      handler_name    : ISO Media file produced by Google Inc.\n",
      "    Stream #0:1(eng): Audio: aac (LC) (mp4a / 0x6134706D), 44100 Hz, stereo, fltp, 127 kb/s (default)\n",
      "    Metadata:\n",
      "      handler_name    : ISO Media file produced by Google Inc.\n",
      "Stream mapping:\n",
      "  Stream #0:0 -> #0:0 (h264 (native) -> h264 (libx264))\n",
      "  Stream #0:1 -> #0:1 (aac (native) -> aac (native))\n",
      "Press [q] to stop, [?] for help\n",
      "[libx264 @ 0x7fa9cc80c000] using SAR=1/1\n",
      "[libx264 @ 0x7fa9cc80c000] using cpu capabilities: MMX2 SSE2Fast SSSE3 SSE4.2 AVX FMA3 BMI2 AVX2\n",
      "[libx264 @ 0x7fa9cc80c000] profile High, level 4.0, 4:2:0, 8-bit\n",
      "[libx264 @ 0x7fa9cc80c000] 264 - core 161 r3030M 8bd6d28 - H.264/MPEG-4 AVC codec - Copyleft 2003-2020 - http://www.videolan.org/x264.html - options: cabac=1 ref=2 deblock=1:0:0 analyse=0x3:0x113 me=hex subme=6 psy=1 psy_rd=1.00:0.00 mixed_ref=1 me_range=16 chroma_me=1 trellis=1 8x8dct=1 cqm=0 deadzone=21,11 fast_pskip=1 chroma_qp_offset=-2 threads=12 lookahead_threads=2 sliced_threads=0 nr=0 decimate=1 interlaced=0 bluray_compat=0 constrained_intra=0 bframes=3 b_pyramid=2 b_adapt=1 b_bias=0 direct=1 weightb=1 open_gop=0 weightp=1 keyint=60 keyint_min=30 scenecut=0 intra_refresh=0 rc_lookahead=30 rc=crf mbtree=1 crf=23.0 qcomp=0.60 qpmin=0 qpmax=69 qpstep=4 ip_ratio=1.40 aq=1:1.00\n",
      "Output #0, mp4, to 'output2.mp4':\n",
      "  Metadata:\n",
      "    major_brand     : isom\n",
      "    minor_version   : 512\n",
      "    compatible_brands: isomiso2avc1mp41\n",
      "    encoder         : Lavf58.45.100\n",
      "    Stream #0:0(und): Video: h264 (libx264) (avc1 / 0x31637661), yuv420p, 1920x1080 [SAR 1:1 DAR 16:9], q=-1--1, 23.98 fps, 24k tbn, 23.98 tbc (default)\n",
      "    Metadata:\n",
      "      handler_name    : ISO Media file produced by Google Inc.\n",
      "      encoder         : Lavc58.91.100 libx264\n",
      "    Side data:\n",
      "      cpb: bitrate max/min/avg: 0/0/0 buffer size: 0 vbv_delay: N/A\n",
      "    Stream #0:1(eng): Audio: aac (LC) (mp4a / 0x6134706D), 44100 Hz, stereo, fltp, 128 kb/s (default)\n",
      "    Metadata:\n",
      "      handler_name    : ISO Media file produced by Google Inc.\n",
      "      encoder         : Lavc58.91.100 aac\n",
      "frame=  240 fps= 21 q=-1.0 Lsize=    2697kB time=00:00:10.00 bitrate=2207.7kbits/s dup=1 drop=0 speed=0.888x    \n",
      "video:2531kB audio:157kB subtitle:0kB other streams:0kB global headers:0kB muxing overhead: 0.329020%\n",
      "[libx264 @ 0x7fa9cc80c000] frame I:4     Avg QP:15.72  size: 61133\n",
      "[libx264 @ 0x7fa9cc80c000] frame P:74    Avg QP:18.55  size: 17009\n",
      "[libx264 @ 0x7fa9cc80c000] frame B:162   Avg QP:20.65  size:  6715\n",
      "[libx264 @ 0x7fa9cc80c000] consecutive B-frames:  7.5%  4.2% 10.0% 78.3%\n",
      "[libx264 @ 0x7fa9cc80c000] mb I  I16..4: 39.0% 54.4%  6.6%\n",
      "[libx264 @ 0x7fa9cc80c000] mb P  I16..4:  8.5% 15.7%  0.6%  P16..4: 22.2%  4.4%  1.8%  0.0%  0.0%    skip:46.9%\n",
      "[libx264 @ 0x7fa9cc80c000] mb B  I16..4:  2.8%  3.2%  0.0%  B16..8: 19.4%  2.2%  0.1%  direct: 7.8%  skip:64.5%  L0:54.1% L1:42.6% BI: 3.4%\n",
      "[libx264 @ 0x7fa9cc80c000] 8x8 transform intra:59.0% inter:80.5%\n",
      "[libx264 @ 0x7fa9cc80c000] coded y,uvDC,uvAC intra: 26.8% 49.4% 8.0% inter: 4.3% 10.8% 0.1%\n",
      "[libx264 @ 0x7fa9cc80c000] i16 v,h,dc,p: 42% 30% 12% 16%\n",
      "[libx264 @ 0x7fa9cc80c000] i8 v,h,dc,ddl,ddr,vr,hd,vl,hu: 35% 23% 22%  3%  3%  4%  3%  3%  3%\n",
      "[libx264 @ 0x7fa9cc80c000] i4 v,h,dc,ddl,ddr,vr,hd,vl,hu: 28% 26% 14%  4%  7%  7%  6%  4%  3%\n",
      "[libx264 @ 0x7fa9cc80c000] i8c dc,h,v,p: 44% 25% 22%  9%\n",
      "[libx264 @ 0x7fa9cc80c000] Weighted P-Frames: Y:5.4% UV:4.1%\n",
      "[libx264 @ 0x7fa9cc80c000] ref P L0: 76.3% 23.7%\n",
      "[libx264 @ 0x7fa9cc80c000] ref B L0: 87.1% 12.9%\n",
      "[libx264 @ 0x7fa9cc80c000] ref B L1: 95.7%  4.3%\n",
      "[libx264 @ 0x7fa9cc80c000] kb/s:2070.76\n",
      "[aac @ 0x7fa9cc80d800] Qavg: 166.651\n"
     ]
    }
   ],
   "source": [
    "def trim_and_reencode(input_file, start_time, duration, output_file):\n",
    "    command = [\n",
    "        \"ffmpeg\",\n",
    "        \"-ss\", str(start_time),  # Start time\n",
    "        \"-i\", input_file,        # Input file\n",
    "        \"-t\", str(duration),     # Duration\n",
    "        \"-c:v\", \"libx264\",       # Re-encode video to H.264\n",
    "        \"-crf\", \"23\",            # Quality factor for x264\n",
    "        \"-preset\", \"fast\",       # Encoding speed/quality tradeoff\n",
    "        \"-c:a\", \"aac\",           # Re-encode audio\n",
    "        \"-b:a\", \"128k\",          # Audio bitrate\n",
    "        \"-keyint_min\", \"30\",     # Minimum keyframe interval\n",
    "        \"-g\", \"60\",              # Maximum keyframe interval (frames)\n",
    "        \"-sc_threshold\", \"0\",    # Disable scene change detection for consistent keyframes\n",
    "        output_file\n",
    "    ]\n",
    "    subprocess.run(command, check=True)\n",
    "\n",
    "\n",
    "trim_and_reencode(\"input/example_input.mp4\", 30, 10, \"output.mp4\")\n",
    "trim_and_reencode(\"input/example_input.mp4\", 40, 10, \"output2.mp4\")"
   ]
  },
  {
   "cell_type": "code",
   "execution_count": null,
   "metadata": {},
   "outputs": [],
   "source": []
  }
 ],
 "metadata": {
  "kernelspec": {
   "display_name": "base",
   "language": "python",
   "name": "python3"
  },
  "language_info": {
   "codemirror_mode": {
    "name": "ipython",
    "version": 3
   },
   "file_extension": ".py",
   "mimetype": "text/x-python",
   "name": "python",
   "nbconvert_exporter": "python",
   "pygments_lexer": "ipython3",
   "version": "3.12.2"
  }
 },
 "nbformat": 4,
 "nbformat_minor": 2
}
